<svg width="24" height="24" viewBox="0 0 24 24" fill="none" xmlns="http://www.w3.org/2000/svg">
  <path d="M19 17H16V19H19V17Z" fill="#FF6B00"/>
  <path d="M8 17H5V19H8V17Z" fill="#FF6B00"/>
  <path d="M22.5 13.5C22.5 13.5 22 9.5 21 9L18.5 6.5C18.5 6.5 17.5 5 16 5H8C6.5 5 5.5 6.5 5.5 6.5L3 9C2 9.5 1.5 13.5 1.5 13.5C1.5 13.5 1 14.5 1 16V19C1 19.8 1.7 20.5 2.5 20.5H3.5C4.3 20.5 5 19.8 5 19V18H19V19C19 19.8 19.7 20.5 20.5 20.5H21.5C22.3 20.5 23 19.8 23 19V16C23 14.5 22.5 13.5 22.5 13.5ZM6.75 8.5C6.75 8.5 7 7.5 8 7.5H16C17 7.5 17.25 8.5 17.25 8.5L19 11H5L6.75 8.5ZM4.5 15C3.7 15 3 14.3 3 13.5C3 12.7 3.7 12 4.5 12C5.3 12 6 12.7 6 13.5C6 14.3 5.3 15 4.5 15ZM19.5 15C18.7 15 18 14.3 18 13.5C18 12.7 18.7 12 19.5 12C20.3 12 21 12.7 21 13.5C21 14.3 20.3 15 19.5 15Z" fill="#FF6B00"/>
</svg>